<svg width="70" height="69" viewBox="0 0 70 69" fill="none" xmlns="http://www.w3.org/2000/svg">
<g filter="url(#filter0_d_12_12)">
<path d="M52.001 0.305664C54.0137 0.305758 55.8654 1.40575 56.8291 3.17285L64.4844 17.21C65.3753 18.8439 65.3801 20.8183 64.4961 22.4561L56.8291 36.6572C55.8688 38.4356 54.0103 39.5439 51.9893 39.5439H30.5439C29.6255 39.5441 28.7812 40.0483 28.3447 40.8564L19.4443 57.3418C18.0762 59.875 14.9853 60.9252 12.3574 59.749L7.98047 57.7891C5.01251 56.4605 3.83877 52.8607 5.45313 50.0381L18.9863 26.3838C19.9659 24.6716 21.7872 23.6153 23.7598 23.6152H52.0811V26.6152H23.7598C22.8632 26.6153 22.0351 27.095 21.5898 27.873L8.05762 51.5273C7.32388 52.8103 7.85701 54.4469 9.20605 55.0508L13.583 57.0107C14.7775 57.5453 16.1828 57.0674 16.8047 55.916L25.7051 39.4316C26.6652 37.6533 28.5229 36.5441 30.5439 36.5439H51.9893C52.9078 36.5439 53.7529 36.0405 54.1895 35.2324L61.8564 21.0312C62.2582 20.2869 62.2554 19.3892 61.8506 18.6465L54.1953 4.6084C53.7572 3.80543 52.9157 3.30576 52.001 3.30566H16.2373C14.2276 3.30574 13.0399 5.55654 14.1738 7.21582L18.5381 13.6025C19.004 14.2839 19.7761 14.6914 20.6016 14.6914H52.0811V17.6914H20.6016C18.7852 17.6914 17.0855 16.7945 16.0605 15.2949L11.6963 8.90918C9.20157 5.25872 11.8159 0.30574 16.2373 0.305664H52.001Z" fill="url(#paint0_linear_12_12)"/>
</g>
<defs>
<filter id="filter0_d_12_12" x="0.725868" y="0.305664" width="68.43" height="67.9241" filterUnits="userSpaceOnUse" color-interpolation-filters="sRGB">
<feFlood flood-opacity="0" result="BackgroundImageFix"/>
<feColorMatrix in="SourceAlpha" type="matrix" values="0 0 0 0 0 0 0 0 0 0 0 0 0 0 0 0 0 0 127 0" result="hardAlpha"/>
<feOffset dy="4"/>
<feGaussianBlur stdDeviation="2"/>
<feColorMatrix type="matrix" values="0 0 0 0 0 0 0 0 0 0 0 0 0 0 0 0 0 0 0.25 0"/>
<feBlend mode="normal" in2="BackgroundImageFix" result="effect1_dropShadow_12_12"/>
<feBlend mode="normal" in="SourceGraphic" in2="effect1_dropShadow_12_12" result="shape"/>
</filter>
<linearGradient id="paint0_linear_12_12" x1="93.5454" y1="-4.37779" x2="93.5454" y2="152.939" gradientUnits="userSpaceOnUse">
<stop/>
<stop offset="1"/>
</linearGradient>
</defs>
</svg>
