<svg width="391" height="360" viewBox="0 0 391 360" fill="none" xmlns="http://www.w3.org/2000/svg">
<g filter="url(#filter0_d_4_13)">
<path d="M313.551 0.0175781C319.794 0.0176972 325.566 3.34408 328.695 8.74707L384.528 105.157C387.656 110.558 387.671 117.217 384.566 122.632L328.704 220.065C325.585 225.506 319.793 228.861 313.522 228.861H160.816C159.921 228.861 159.093 229.341 158.647 230.118L91.999 346.364C87.6003 354.036 78.1694 357.221 70.0205 353.786L14.9248 330.562C5.07823 326.412 1.21823 314.482 6.7666 305.35L103.592 145.979C106.766 140.755 112.435 137.565 118.548 137.565H304.94V152.565H118.548C117.675 152.565 116.865 153.021 116.411 153.768L19.5859 313.139C18.7935 314.443 19.3453 316.147 20.752 316.74L75.8467 339.964C77.0107 340.454 78.358 339.999 78.9863 338.903L145.634 222.657C148.753 217.217 154.545 213.861 160.816 213.861H313.522C314.418 213.861 315.246 213.382 315.691 212.605L371.554 115.171C371.997 114.398 371.994 113.446 371.548 112.675L315.715 16.2646C315.268 15.4928 314.443 15.0177 313.551 15.0176H52.4424C50.4003 15.0176 49.2195 17.3336 50.4189 18.9863L97.5146 83.8789C97.985 84.5267 98.7375 84.9102 99.5381 84.9102H304.94V99.9102H99.5381C93.9331 99.9102 88.6662 97.2257 85.374 92.6895L38.2793 27.7959C29.8836 16.227 38.148 0.0175925 52.4424 0.0175781H313.551Z" fill="url(#paint0_linear_4_13)"/>
</g>
<defs>
<filter id="filter0_d_4_13" x="0.216934" y="0.0175781" width="390.668" height="363.145" filterUnits="userSpaceOnUse" color-interpolation-filters="sRGB">
<feFlood flood-opacity="0" result="BackgroundImageFix"/>
<feColorMatrix in="SourceAlpha" type="matrix" values="0 0 0 0 0 0 0 0 0 0 0 0 0 0 0 0 0 0 127 0" result="hardAlpha"/>
<feOffset dy="4"/>
<feGaussianBlur stdDeviation="2"/>
<feColorMatrix type="matrix" values="0 0 0 0 0 0 0 0 0 0 0 0 0 0 0 0 0 0 0.25 0"/>
<feBlend mode="normal" in2="BackgroundImageFix" result="effect1_dropShadow_4_13"/>
<feBlend mode="normal" in="SourceGraphic" in2="effect1_dropShadow_4_13" result="shape"/>
</filter>
<linearGradient id="paint0_linear_4_13" x1="208.928" y1="1.64631" x2="208.928" y2="354.162" gradientUnits="userSpaceOnUse">
<stop stop-color="#1595B6"/>
<stop offset="1" stop-color="#422D86"/>
</linearGradient>
</defs>
</svg>
